<svg width="24" height="18" viewBox="0 0 24 18" fill="none" xmlns="http://www.w3.org/2000/svg">
<rect width="2.57143" height="2.57143" transform="matrix(-4.37114e-08 1 1 4.37114e-08 10.2856 15.4285)" fill="#595959"/>
<rect width="2.57143" height="7.71429" transform="matrix(-4.37114e-08 1 1 4.37114e-08 7.71436 12.8572)" fill="#595959"/>
<rect width="2.57143" height="12.8571" transform="matrix(-4.37114e-08 1 1 4.37114e-08 5.14307 10.2856)" fill="#595959"/>
<rect width="2.57143" height="18" transform="matrix(-4.37114e-08 1 1 4.37114e-08 2.57129 7.71436)" fill="#595959"/>
<rect width="2.57143" height="23.1429" transform="matrix(-4.37114e-08 1 1 4.37114e-08 0 5.14282)" fill="#595959"/>
<rect width="2.57143" height="7.71429" transform="matrix(-4.37114e-08 1 1 4.37114e-08 2.57129 2.57153)" fill="#595959"/>
<rect width="2.57143" height="2.57143" transform="matrix(-4.37114e-08 1 1 4.37114e-08 5.14307 0)" fill="#595959"/>
<rect width="2.57143" height="2.57143" transform="matrix(-4.37114e-08 1 1 4.37114e-08 15.4287 0)" fill="#595959"/>
<rect width="2.57143" height="7.71429" transform="matrix(-4.37114e-08 1 1 4.37114e-08 12.8569 2.57153)" fill="#595959"/>
</svg>
