<svg width="30" height="24" viewBox="0 0 30 24" fill="none" xmlns="http://www.w3.org/2000/svg">
<rect width="3.31749" height="3.31749" transform="matrix(-4.37114e-08 1 1 4.37114e-08 13.4131 19.905)" fill="white"/>
<rect width="3.31749" height="9.95247" transform="matrix(-4.37114e-08 1 1 4.37114e-08 10.0942 16.5874)" fill="white"/>
<rect width="3.31749" height="16.5875" transform="matrix(-4.37114e-08 1 1 4.37114e-08 6.77783 13.2698)" fill="white"/>
<rect width="3.31749" height="23.2224" transform="matrix(-4.37114e-08 1 1 4.37114e-08 3.45947 9.95264)" fill="white"/>
<rect width="3.31749" height="29.8574" transform="matrix(-4.37114e-08 1 1 4.37114e-08 0.142578 6.63501)" fill="white"/>
<rect width="3.31749" height="9.95247" transform="matrix(-4.37114e-08 1 1 4.37114e-08 3.45947 3.31738)" fill="white"/>
<rect width="3.31749" height="3.31749" transform="matrix(-4.37114e-08 1 1 4.37114e-08 6.77783 0)" fill="white"/>
<rect width="3.31749" height="3.31749" transform="matrix(-4.37114e-08 1 1 4.37114e-08 20.0483 0)" fill="white"/>
<rect width="3.31749" height="9.95247" transform="matrix(-4.37114e-08 1 1 4.37114e-08 16.7295 3.31738)" fill="white"/>
</svg>
