<svg width="381" height="7" viewBox="0 0 381 7" fill="none" xmlns="http://www.w3.org/2000/svg">
<path d="M1 5.99989L4.64423 1.57666L8.28846 5.99989L11.9327 1.57666L15.5769 5.99989L19.2212 1.57666L22.8654 5.99989L26.5096 1.57666L30.1538 5.99989L33.7981 1.57666L37.4423 5.99989L41.0865 1.57666L44.7308 5.99989L48.375 1.57666L52.0192 5.99989L55.6635 1.57666L59.3077 5.99989L62.9519 1.57666L66.5962 5.99989L70.2404 1.57666L73.8846 5.99989L77.5288 1.57666L81.1731 5.99989L84.8173 1.57666L88.4615 5.99989L92.1058 1.57666L95.75 5.99989L99.3942 1.57666L103.038 5.99989L106.683 1.57666L110.327 5.99989L113.971 1.57666L117.615 5.99989L121.26 1.57666L124.904 5.99989L128.548 1.57666L132.192 5.99989L135.837 1.57666L139.481 5.99989L143.125 1.57666L146.769 5.99989L150.413 1.57666L154.058 5.99989L157.702 1.57666L161.346 5.99989L164.99 1.57666L168.635 5.99989L172.279 1.57666L175.923 5.99989L179.567 1.57666L183.212 5.99989L186.856 1.57666L190.5 5.99989L194.144 1.57666L197.788 5.99989L201.433 1.57666L205.077 5.99989L208.721 1.57666L212.365 5.99989L216.01 1.57666L219.654 5.99989L223.298 1.57666L226.942 5.99989L230.587 1.57666L234.231 5.99989L237.875 1.57666L241.519 5.99989L245.163 1.57666L248.808 5.99989L252.452 1.57666L256.096 5.99989L259.74 1.57666L263.385 5.99989L267.029 1.57666L270.673 5.99989L274.317 1.57666L277.961 5.99989L281.606 1.57666L285.25 5.99989L288.894 1.57666L292.538 5.99989L296.183 1.57666L299.827 5.99989L303.471 1.57666L307.115 5.99989L310.76 1.57666L314.404 5.99989L318.048 1.57666L321.692 5.99989L325.337 1.57666L328.981 5.99989L332.625 1.57666L336.269 5.99989L339.913 1.57666L343.558 5.99989L347.202 1.57666L350.846 5.99989L354.49 1.57666L358.135 5.99989L361.779 1.57666L365.423 5.99989L369.067 1.57666L372.712 5.99989L376.356 1.57666L380 5.99989" stroke="black"/>
</svg>
