<svg width="20" height="28" viewBox="0 0 20 28" fill="none" xmlns="http://www.w3.org/2000/svg">
<rect width="4" height="4" transform="matrix(-4.37114e-08 1 1 4.37114e-08 16 16)" fill="black"/>
<rect width="4" height="4" transform="matrix(-4.37114e-08 1 1 4.37114e-08 12 20)" fill="black"/>
<rect width="4" height="4" transform="matrix(-4.37114e-08 1 1 4.37114e-08 8 24)" fill="black"/>
<rect x="0.5" y="0.5" width="24" height="3" transform="matrix(-4.37114e-08 1 1 4.37114e-08 8 2.18557e-08)" fill="white" stroke="black"/>
<rect width="4" height="4" transform="matrix(-4.37114e-08 1 1 4.37114e-08 4 20)" fill="black"/>
<rect width="4" height="4" transform="matrix(-4.37114e-08 1 1 4.37114e-08 0 16)" fill="black"/>
</svg>
