<svg  viewBox="0 0 50 50" fill="none" xmlns="http://www.w3.org/2000/svg">
<circle cx="25" cy="25" r="24.5" />
<path d="M17 17V19.8136H19.8333V17H17ZM29.7736 25.4882C32.2292 25.4882 33.9764 23.7385 33.9764 21.2796V17H31.1431V22.6509H28.3097V25.4882H25.5L25.4764 28.3255H28.3333V25.4882H29.7736ZM19.8333 19.8136V22.6509H22.6667V19.8136H19.8333ZM22.6667 22.6509L22.6431 25.4882H21.2028C18.7472 25.4882 17 27.2615 17 29.7204V34H19.8333V28.3255H22.6667V25.4882H25.5V22.6509H22.6667ZM28.3333 28.3255V31.1627H31.1667V28.3255H28.3333ZM31.1667 34H34V31.1627H31.1667V34Z"/>
</svg>
