<svg  viewBox="0 0 364 35" fill="none" xmlns="http://www.w3.org/2000/svg">
<path d="M223.644 5.25574H223.144V5.75574V10.9896H218.5V8.55326C218.5 3.87691 221.814 0.521913 226.397 0.521913H251.361V5.25574H223.644ZM246.218 29.191H246.718V28.691V17.7234H251.361V25.8716C251.361 30.5704 248.047 33.9321 243.443 33.9321H218.5V29.191H246.218ZM260.919 5.25574H260.419V5.75574V10.9896H255.776V8.55326C255.776 3.87634 259.083 0.521913 263.665 0.521913H280.74C285.323 0.521913 288.636 3.87691 288.636 8.55326V10.9896H283.993V5.75574V5.25574H283.493H260.919ZM282.993 11.9896V16.7234H261.419V11.9896H282.993ZM283.993 33.9388V17.7234H288.636V33.9328L283.993 33.9388ZM260.42 17.7234L260.44 33.9388L255.776 33.9328V17.7234H260.419H260.42ZM318.015 33.9248H317.515V33.9321H300.941C296.357 33.9321 293.044 30.5771 293.044 25.9008V8.55326C293.044 3.87691 296.357 0.521913 300.941 0.521913L300.941 0.521913L325.912 0.50043V5.25574H298.195H297.695V5.75574V28.691V29.191H298.195H320.768H321.268V28.691V17.7234H325.912V25.8935C325.912 30.5698 322.598 33.9248 318.015 33.9248ZM304.318 11.9896H320.268V16.7234H304.336L304.318 11.9896ZM334.971 17.7234L334.991 33.9321H330.326V17.7234H334.956H334.971ZM335.956 11.9896H357.529V16.7234H335.969H335.956V11.9896ZM334.963 10.9896H330.312V8.55326C330.312 3.87691 333.626 0.521913 338.209 0.521913H355.283C359.866 0.521913 363.18 3.87691 363.18 8.55326V10.9896H358.536V5.75574V5.25574H358.036H335.463H334.963V5.75574V10.9896ZM358.536 33.9321V17.7234H363.18V33.9321H358.536ZM224.144 11.9896H245.718V16.7234H224.144V11.9896Z" />
<path d="M33.3605 29.1695V33.9249H8.38965C3.80681 33.9249 0.5 30.5705 0.5 25.8935V0.521953H5.14342V28.6911V29.1915L5.64381 29.1911L33.3605 29.1695ZM42.9116 5.25578H42.4116V5.75578V10.9896H37.7681V8.5533C37.7681 3.87695 41.0816 0.521953 45.665 0.521953H62.739C67.3219 0.521953 70.6287 3.87638 70.6287 8.5533V10.9896H65.9852V5.75578V5.25578H65.4852H42.9116ZM64.9852 11.9896V16.7234H43.4116V11.9896H64.9852ZM65.9852 17.7234H70.6287V33.9322H65.9852V17.7234ZM42.4124 17.7234L42.4395 33.9322H37.7681V17.7234H42.4116H42.4124ZM80.1869 5.25578H79.6869V5.75578V10.9896H75.0435V8.5533C75.0435 3.87695 78.3569 0.521953 82.9403 0.521953H107.904V5.25578H80.1869ZM102.761 29.1911H103.261V28.6911V17.7234H107.904V25.8716C107.904 30.5705 104.59 33.9322 99.9856 33.9322H75.0435V29.1911H102.761ZM117.462 5.25578H116.962V5.75578V10.9896H112.319V8.5533C112.319 3.87695 115.632 0.521953 120.216 0.521953H145.625V5.25578H117.462ZM116.962 28.6911V29.1911H117.462H145.625V33.9322H120.216C115.633 33.9322 112.319 30.5705 112.319 25.8935V17.7234H116.962V28.6911ZM177.811 29.1911H182.455V33.9322H177.811V29.1911ZM176.811 28.1911H172.168V23.4572H176.811V28.1911ZM155.238 11.9896H178.44H178.94V11.4896V5.75578V5.25578H178.44H154.738H154.238V5.75578V10.987L149.594 10.963V0.514648H175.686C180.27 0.514648 183.583 3.86965 183.583 8.54599V8.69208C183.583 13.3684 180.27 16.7234 175.686 16.7234H171.668H171.168V17.2234V22.4572H166.524V17.2234V16.7234H166.024H155.238V16.7215V11.9896ZM149.594 17.7434L154.238 17.7254V33.9322H149.594V17.7434ZM80.6869 11.9896H102.261V16.7234H80.6869V11.9896ZM117.962 11.9896H145.625V16.7234H117.962V11.9896Z" />
</svg>
