<svg width="69" height="28" viewBox="0 0 69 28" fill="none" xmlns="http://www.w3.org/2000/svg">
<path d="M12.6911 12.862V10.7094L2.11518 10.7183V0H0V9.67327C0 11.5222 1.32199 12.862 3.14633 12.862H12.6911ZM24.5469 4.28734H16.0861V2.14366H24.5469V4.28734ZM16.0949 12.862L16.0861 6.43098H13.971V12.862H16.0949ZM26.662 12.862V6.43098H24.5469V12.862H26.662ZM24.5469 4.28732H26.662V3.1887C26.662 1.33979 25.34 0 23.5157 0H17.1173C15.2929 0 13.971 1.33979 13.971 3.1887V4.28732H16.0861V6.43098H24.5469V4.28732ZM30.0571 4.28732V2.14366H40.633V0H31.0882C29.2639 0 27.9419 1.33979 27.9419 3.1887V4.28732H30.0571ZM38.5178 6.43098V4.28732H30.0571V6.43098H38.5178ZM37.4778 12.862C39.311 12.862 40.633 11.5222 40.633 9.66434V6.43098H38.5178V10.7183H27.9419V12.8441L37.4778 12.862ZM44.028 4.28732V2.14366H54.7714V0H45.0592C43.2348 0 41.9129 1.33979 41.9129 3.1887V4.28732H44.028ZM54.7714 6.43098V4.28732H44.028V6.43098H54.7714ZM54.7714 12.862V10.7183H44.028V6.43098H41.9129V9.67327C41.9129 11.5222 43.2348 12.862 45.0592 12.862H54.7714ZM57.999 4.28732V2.14366H66.8828V4.28732H57.999ZM57.999 12.862V6.43098L55.8838 6.43992V12.862H57.999ZM66.4597 10.7183V8.57464H64.3445V10.7183H66.4597ZM68.5749 12.862V10.7183H66.4597V12.862H68.5749ZM57.999 4.28732V6.43098H62.2294V8.57464H64.3445V6.43098H65.8516C67.6759 6.43098 68.9979 5.09119 68.9979 3.24229V3.1887C68.9979 1.33979 67.6759 0 65.8516 0H55.8838V4.27839L57.999 4.28732ZM9.10066 19.1704V17.0267H19.6766V14.8831H10.1318C8.30746 14.8831 6.98548 16.2229 6.98548 18.0718V19.1704H9.10066ZM17.5614 21.3141V19.1704H9.10066V21.3141H17.5614ZM16.5214 27.7451C18.3546 27.7451 19.6766 26.4053 19.6766 24.5474V21.3141H17.5614V25.6014H6.98548V27.7272L16.5214 27.7451ZM31.5323 19.1704H23.0716V17.0267H31.5323V19.1704ZM23.0804 27.7451L23.0716 21.3141H20.9564V27.7451H23.0804ZM33.6475 27.7451V21.3141H31.5323V27.7451H33.6475ZM31.5323 19.1704H33.6475V18.0718C33.6475 16.2229 32.3255 14.8831 30.5012 14.8831H24.1028C22.2784 14.8831 20.9564 16.2229 20.9564 18.0718V19.1704H23.0716V21.3141H31.5323V19.1704ZM44.4721 27.7451C46.2965 27.7451 47.6185 26.4053 47.6185 24.5564V21.3141H45.5033V25.6014H37.0426V17.0267H47.6185V14.8742L38.0737 14.8831C36.2494 14.8831 34.9274 16.2229 34.9274 18.0718V24.5564C34.9274 26.4053 36.2494 27.7451 38.0737 27.7451H44.4721ZM45.5033 21.3141V19.1704H39.1489L39.1577 21.3141H45.5033ZM59.4742 19.1704H51.0135V17.0267H59.4742V19.1704ZM51.0223 27.7451L51.0135 21.3141H48.8983V27.7451H51.0223ZM61.5894 27.7451V21.3141H59.4742V27.7451H61.5894ZM59.4742 19.1704H61.5894V18.0718C61.5894 16.2229 60.2674 14.8831 58.4431 14.8831H52.0447C50.2203 14.8831 48.8983 16.2229 48.8983 18.0718V19.1704H51.0135V21.3141H59.4742V19.1704Z" fill="black"/>
</svg>
