<svg viewBox="0 0 40 40" fill="none" xmlns="http://www.w3.org/2000/svg">
<circle cx="20" cy="20" r="19.5"/>
<path d="M25.9996 22.9843V24.7908C26.0003 24.9585 25.9659 25.1245 25.8986 25.2781C25.8313 25.4318 25.7325 25.5697 25.6087 25.6831C25.4849 25.7965 25.3387 25.8828 25.1795 25.9365C25.0203 25.9903 24.8517 26.0102 24.6843 25.9951C22.8277 25.7938 21.0443 25.1606 19.4773 24.1465C18.0195 23.222 16.7836 21.9884 15.8572 20.5335C14.8375 18.9626 14.2029 17.174 14.0049 15.3128C13.9898 15.1463 14.0096 14.9784 14.0631 14.82C14.1166 14.6615 14.2025 14.5159 14.3155 14.3924C14.4284 14.269 14.5659 14.1703 14.7191 14.1027C14.8724 14.0352 15.038 14.0002 15.2056 14.0001H17.0156C17.3085 13.9972 17.5923 14.1007 17.8143 14.2912C18.0364 14.4818 18.1814 14.7464 18.2224 15.0358C18.2988 15.6139 18.4404 16.1815 18.6447 16.7278C18.7259 16.9434 18.7435 17.1776 18.6953 17.4028C18.6472 17.628 18.5354 17.8347 18.3732 17.9984L17.6069 18.7632C18.4658 20.2707 19.7165 21.5189 21.2271 22.3761L21.9933 21.6114C22.1574 21.4495 22.3645 21.3379 22.5901 21.2899C22.8158 21.2419 23.0505 21.2594 23.2664 21.3404C23.8138 21.5443 24.3826 21.6857 24.9619 21.7619C25.2549 21.8032 25.5226 21.9505 25.714 22.1759C25.9053 22.4013 26.007 22.689 25.9996 22.9843Z" stroke-linecap="round" stroke-linejoin="round"/>
</svg>
