<svg viewBox="0 0 78 85" fill="none" xmlns="http://www.w3.org/2000/svg">
<path d="M77.9999 0H0.128906V85H77.9999V0Z" fill="#FF3300"/>
<path d="M11.2595 60.5931C11.2595 60.972 11.7392 61.1208 13.4991 61.1208C15.4349 61.1208 15.6795 60.9939 15.6795 60.7575C15.6795 60.5054 15.5471 60.3786 13.2187 60.305C10.079 60.2017 9.2442 59.6802 9.2442 58.5294C9.2442 57.3034 10.3531 56.6646 13.3527 56.6646C16.5454 56.6646 17.5499 57.0654 17.5499 58.3587C17.5499 58.4699 17.5499 58.5811 17.5421 58.7079C17.321 58.6938 16.9285 58.686 16.5516 58.686C16.1607 58.686 15.7682 58.6938 15.5471 58.7079V58.567C15.5471 58.1881 15.2808 58.0612 13.3231 58.0612C11.5196 58.0612 11.2548 58.1724 11.2548 58.3963C11.2548 58.6186 11.395 58.7157 13.8713 58.8425C16.8055 58.9913 17.7057 59.4219 17.7057 60.6698C17.7057 61.9694 16.6793 62.5942 13.524 62.5942C10.3017 62.5942 9.20215 62.0524 9.20215 60.9219C9.20215 60.7888 9.20994 60.6463 9.23174 60.4991C9.49027 60.5289 9.88118 60.5508 10.2518 60.5508C10.6287 60.5508 10.9838 60.543 11.2642 60.5289V60.5931H11.2595Z" fill="black"/>
<path d="M27.3949 62.4142C27.4245 61.6188 27.4463 60.8469 27.454 59.9262C27.454 59.5473 27.4836 59.1386 27.5054 58.7456L27.454 58.7315C27.2687 59.1026 27.0631 59.4893 26.8108 59.8166L24.8594 62.4173H23.8471L21.6605 59.4909C21.4159 59.1636 21.2026 58.7785 21.0172 58.4215L20.9658 58.4356C20.9876 58.8223 21.0172 59.2075 21.025 59.6318C21.0328 60.6715 21.0546 61.5405 21.0982 62.4173H19.1172C19.1608 61.6157 19.1764 60.8046 19.1764 59.624C19.1764 58.4058 19.1624 57.5728 19.139 56.8447H22.109C22.5155 57.446 23.1213 58.3526 23.8829 59.4596C24.0822 59.7414 24.2972 60.0608 24.5043 60.3881H24.5479C24.7473 60.053 24.9388 59.7336 25.1242 59.4596C25.8328 58.398 26.4978 57.4319 26.898 56.8447H29.5207C29.4989 57.5728 29.4771 58.4042 29.4771 59.624C29.4771 60.8046 29.4849 61.6157 29.5363 62.4173H27.3949V62.4142Z" fill="black"/>
<path d="M38.0681 62.4138C38.0012 62.251 37.8236 61.8862 37.5807 61.4336C36.8128 61.4258 36.0357 61.4258 35.4454 61.4258C34.9066 61.4258 34.1154 61.4258 33.3694 61.4336C33.1186 61.8564 32.9193 62.2134 32.8227 62.4138H30.3916C31.4475 60.9436 33.4955 57.823 33.9752 56.8428H37.0496C37.5526 57.823 39.5991 60.906 40.7002 62.4138H38.0681ZM34.9875 58.7656C34.7368 59.1664 34.4487 59.6346 34.1668 60.1027C34.6325 60.1106 35.0981 60.1106 35.4532 60.1106C35.8379 60.1106 36.3394 60.1106 36.8424 60.1027C36.5683 59.6267 36.2802 59.1523 36.0217 58.7499C35.7927 58.4007 35.6308 58.1111 35.5046 57.8809L34.9875 58.7656Z" fill="black"/>
<path d="M47.8511 60.1326C49.1438 60.2594 49.7356 60.4677 49.9723 61.3132C50.1047 61.7954 50.2231 62.1979 50.3196 62.4124H48.4803C48.1486 62.4124 48.0894 62.3388 47.9041 61.6107C47.7421 60.9562 47.4976 60.8372 46.1535 60.8372H43.509C43.523 61.4682 43.5526 62.0115 43.5978 62.4124H41.4844C41.4984 61.6029 41.514 60.8231 41.514 59.6268C41.514 58.4462 41.5062 57.643 41.4844 56.8413H46.9821C48.9849 56.8413 49.9225 57.369 49.9225 58.4979C49.9225 59.4562 49.3011 59.9463 47.8542 60.1028V60.1326H47.8511ZM46.3357 59.4499C47.5256 59.4499 47.9539 59.2495 47.9539 58.8408C47.9539 58.4181 47.5334 58.2756 46.3575 58.2756C45.7953 58.2756 44.2223 58.2834 43.4763 58.3053C43.4763 58.6842 43.4763 59.0632 43.4841 59.4264C44.0167 59.4499 45.1459 59.4499 46.3357 59.4499Z" fill="black"/>
<path d="M58.6147 56.8413C58.6007 57.0574 58.6007 57.3831 58.6007 57.6727C58.6007 57.9546 58.6007 58.3038 58.6147 58.5418C57.5884 58.512 56.5683 58.512 55.6805 58.512C55.6805 60.3768 55.6883 61.988 55.7101 62.4202C55.4376 62.3983 54.9781 62.3983 54.6682 62.3983C54.3583 62.3983 53.9222 62.3983 53.6263 62.4202C53.6481 61.9896 53.6637 60.3847 53.6637 58.512C52.7775 58.512 51.7574 58.512 50.7295 58.5418C50.7373 58.3038 50.7373 57.9624 50.7373 57.6727C50.7373 57.3831 50.7373 57.0636 50.7295 56.8413H58.6147Z" fill="black"/>
<path d="M13.8808 71.5783C10.4374 71.5783 9.02637 70.3444 9.02637 68.525C9.02637 66.6304 10.5853 65.5015 13.8808 65.5015C17.1763 65.5015 18.7353 66.6304 18.7353 68.525C18.7353 70.346 17.3243 71.5783 13.8808 71.5783ZM16.6593 68.5328C16.6593 67.6184 15.9429 67.1142 13.8808 67.1142C11.8188 67.1142 11.1024 67.62 11.1024 68.5328C11.1024 69.4316 11.811 69.9671 13.8808 69.9671C15.9584 69.9671 16.6593 69.4316 16.6593 68.5328Z" fill="black"/>
<path d="M26.4341 69.0452C27.7268 69.172 28.3186 69.3803 28.5553 70.2258C28.6877 70.708 28.8061 71.1104 28.9026 71.3249H27.0633C26.7316 71.3249 26.6724 71.2514 26.4871 70.5233C26.3251 69.8688 26.0806 69.7498 24.7365 69.7498H22.092C22.106 70.3808 22.1356 70.9241 22.1808 71.3249H20.0674C20.0814 70.5154 20.097 69.7357 20.097 68.5394C20.097 67.3588 20.0892 66.5556 20.0674 65.7539H25.5651C27.5679 65.7539 28.5055 66.2816 28.5055 67.4105C28.5055 68.3688 27.8841 68.8588 26.4372 69.0154V69.0452H26.4341ZM24.9187 68.3625C26.1086 68.3625 26.5369 68.1621 26.5369 67.7534C26.5369 67.3306 26.1164 67.1882 24.9406 67.1882C24.3783 67.1882 22.8053 67.196 22.0593 67.2179C22.0593 67.5968 22.0593 67.9757 22.0671 68.339C22.5997 68.3625 23.7304 68.3625 24.9187 68.3625Z" fill="black"/>
<path d="M36.7761 71.3264C36.7092 71.1636 36.5316 70.7987 36.2887 70.3462C35.5208 70.3384 34.7437 70.3384 34.1534 70.3384C33.6146 70.3384 32.8234 70.3384 32.0774 70.3462C31.8266 70.769 31.6273 71.126 31.5307 71.3264H29.0996C30.1555 69.8561 32.2035 66.7355 32.6832 65.7554H35.7576C36.2606 66.7355 38.3071 69.8186 39.4082 71.3264H36.7761ZM33.6956 67.6781C33.4448 68.079 33.1567 68.5472 32.8748 69.0153C33.3405 69.0231 33.8061 69.0232 34.1612 69.0232C34.5459 69.0232 35.0474 69.0231 35.5504 69.0153C35.2763 68.5393 34.9882 68.0649 34.7297 67.6625C34.5007 67.3133 34.3388 67.0236 34.2126 66.7935L33.6956 67.6781Z" fill="black"/>
<path d="M49.0845 65.7554C49.0627 66.4396 49.0549 67.3525 49.0549 68.5346C49.0549 69.7606 49.0549 70.5842 49.0689 71.328H46.9633C46.5272 70.8301 44.23 69.2549 42.9592 68.364C42.6492 68.1416 42.3315 67.9177 42.073 67.6813C42.1026 68.1275 42.1104 68.5722 42.1244 69.0263C42.1322 70.1771 42.1384 70.9867 42.1618 71.3296H40.2617C40.2617 70.5795 40.2835 69.7325 40.2835 68.544C40.2835 67.3634 40.2835 66.5163 40.2617 65.7585H42.671C42.9436 66.1155 45.4791 67.9271 46.6098 68.7084C46.8761 68.8869 47.1424 69.0279 47.3417 69.2204C47.3122 68.8118 47.2981 68.4188 47.2981 68.1134C47.2981 67.0816 47.2763 66.1531 47.2467 65.7585H49.0845V65.7554Z" fill="black"/>
<path d="M55.3355 71.5057C52.2253 71.5057 50.4141 70.6069 50.4141 68.5041C50.4141 66.2901 52.2985 65.5776 55.2249 65.5776C58.0174 65.5776 59.7461 66.038 59.7461 67.7024C59.7461 67.7541 59.7461 67.8136 59.7383 67.8652C59.5172 67.8496 59.1247 67.8433 58.7478 67.8433C58.3413 67.8433 57.9566 67.8512 57.7277 67.8652C57.7277 67.8355 57.7355 67.8057 57.7355 67.776C57.7355 67.2562 57.0331 67.0917 55.2156 67.0917C53.2937 67.0917 52.4963 67.4863 52.4963 68.5401C52.4963 69.4984 53.2423 70.0104 55.334 70.0104C56.8929 70.0104 57.5798 69.7724 57.7791 69.2682C56.7528 69.2682 55.3698 69.276 54.454 69.2979C54.4618 69.1868 54.4618 68.9488 54.4618 68.8376C54.4618 68.6372 54.4618 68.4587 54.454 68.3178C55.6517 68.3397 56.8774 68.3334 57.7713 68.3334C58.318 68.3334 59.0204 68.3412 59.7524 68.3178C59.8878 70.3235 59.3848 71.5057 55.3355 71.5057Z" fill="black"/>
<path d="M69.0995 65.7554C69.0917 65.9182 69.0855 66.1781 69.0855 66.4099C69.0855 66.6479 69.0855 66.9156 69.0995 67.0706C67.5623 67.0628 64.7839 67.0565 63.4025 67.0565V67.9115C64.9988 67.9115 67.7835 67.9115 69.0185 67.8895C69.0107 68.1792 69.0045 68.7742 69.0108 69.0858C67.7991 69.0717 64.9833 69.056 63.4025 69.056V69.9251C64.7839 69.9251 67.6589 69.9172 69.0995 69.911C69.0855 70.0895 69.0855 70.3713 69.0855 70.6312C69.0855 70.8692 69.0855 71.1432 69.0995 71.3296H61.2891C61.3187 70.5717 61.3187 69.7325 61.3187 68.544C61.3187 67.3634 61.3187 66.5085 61.2891 65.7585H69.0995V65.7554Z" fill="black"/>
<path d="M18.5049 41.9154C18.0766 41.9154 17.6732 41.8668 17.2964 41.7666C16.0068 41.4222 15.1097 40.4811 14.697 39.0422C11.4249 36.5119 9.48122 32.9387 9.22113 28.9726C8.93612 24.6417 10.6431 20.3906 14.0273 17.0022L14.2516 16.7783L14.3357 17.0836C15.6361 21.8311 22.3798 30.053 29.3664 35.4127L29.5346 35.5411L29.385 35.6914C25.4432 39.6403 21.4173 41.9154 18.5049 41.9154ZM14.0694 17.4861C10.9078 20.7617 9.31769 24.8202 9.58868 28.9476C9.84254 32.826 11.7535 36.3193 14.9696 38.7854L15.0194 38.823L15.035 38.8825C15.4072 40.24 16.1999 41.0902 17.3898 41.4065C17.7418 41.5004 18.1218 41.5458 18.5236 41.5458C21.2896 41.5458 25.1489 39.3647 28.9739 35.5755C22.1384 30.2879 15.5692 22.2993 14.0694 17.4861Z" fill="black"/>
<path d="M17.5872 41.8129C14.0192 39.0759 10.5711 34.8608 9.90137 32.4151L10.2565 32.3164C10.909 34.6964 14.298 38.8238 17.8099 41.5185L17.5872 41.8129Z" fill="black"/>
<path d="M22.7504 40.6024C16.6656 35.9348 10.7879 28.7541 9.64941 24.5923L10.0045 24.4937C11.1258 28.5882 16.9444 35.6827 22.9747 40.308L22.7504 40.6024Z" fill="black"/>
<path d="M14.7891 39.1058C12.8952 38.3213 11.696 36.9074 11.3207 35.0128C10.6323 31.5383 12.7426 26.9396 16.9648 22.7104L17.2249 22.9719C13.0899 27.1134 11.0185 31.5869 11.682 34.9392C12.0309 36.7054 13.1553 38.0269 14.9292 38.7613L14.7891 39.1058Z" fill="black"/>
<path d="M14.2024 39.3902C14.1027 39.3902 14.0202 39.3574 13.9594 39.2791C13.8333 39.1131 13.6215 38.8375 16.0043 36.0739C17.529 34.3046 19.7343 31.97 22.3788 29.3223L22.6389 29.5838C16.7503 35.482 14.4671 38.374 14.2803 39.0082C14.3581 38.9863 14.5045 38.9268 14.7646 38.7749L14.9499 39.0943C14.6774 39.2524 14.4064 39.3902 14.2024 39.3902Z" fill="black"/>
<path d="M25.5335 42.5676C23.6334 42.5676 21.7505 42.2968 19.9657 41.7472C18.9798 41.9617 18.0797 41.9742 17.2978 41.766C15.9896 41.4168 15.0863 40.4538 14.6829 38.982L14.5381 38.4528L14.9726 38.7863C16.4833 39.945 18.1871 40.8046 19.9937 41.3698C22.618 40.7686 25.8901 38.672 29.128 35.4292L29.2417 35.3149L29.3694 35.4136C32.3051 37.6652 34.4108 38.791 35.8965 39.3202C37.1845 38.5405 38.39 37.6057 39.4739 36.519L39.6982 36.2951L39.7823 36.6004C40.3227 38.5749 39.7948 39.4267 39.2559 39.7915C38.5473 40.2722 37.4041 40.2362 35.9355 39.7258C32.763 41.6047 29.1171 42.5676 25.5335 42.5676ZM20.6634 41.5671C25.4867 42.8698 30.958 42.1527 35.4854 39.5613C33.7613 38.8818 31.6386 37.6104 29.2713 35.8066C26.267 38.7894 23.2207 40.7983 20.6634 41.5671ZM15.2187 39.4283C15.6392 40.4711 16.3681 41.1365 17.3913 41.409C17.9442 41.5561 18.5609 41.5859 19.2321 41.5045C17.8071 40.9972 16.4553 40.3067 15.2187 39.4283ZM36.3529 39.4705C38.0863 39.9904 38.8401 39.6271 39.0472 39.4862C39.7605 39.0024 39.7122 37.9267 39.502 37.0076C38.5332 37.9455 37.4758 38.7675 36.3529 39.4705Z" fill="black"/>
<path d="M22.1025 44.0598C21.0932 44.0598 19.486 43.2707 17.5859 41.8129L17.8086 41.5186C20.5123 43.5932 22.0729 43.9205 22.5884 43.5713C22.945 43.3286 22.8687 42.7273 22.7426 42.2654L23.0976 42.1668C23.3858 43.2159 23.0914 43.6762 22.7955 43.8782C22.6148 44.0003 22.3812 44.0598 22.1025 44.0598Z" fill="black"/>
<path d="M30.3845 44.4261C28.7009 44.4261 25.9832 43.0811 22.75 40.6025L22.9727 40.3081C26.8258 43.2627 30.0963 44.6438 31.3018 43.8233C31.9761 43.3661 31.8453 42.2779 31.6179 41.4449L31.973 41.3462C32.4434 43.0654 31.9808 43.8092 31.5089 44.1302C31.2161 44.329 30.8377 44.4261 30.3845 44.4261Z" fill="black"/>
<path d="M24.5861 44.3699C24.2061 44.3699 23.8261 44.3527 23.4492 44.3167C19.9092 43.9847 16.8053 42.1105 14.709 39.0384L15.0127 38.8286C17.0467 41.8083 20.0556 43.6262 23.485 43.9472C27.5375 44.3276 31.8157 42.5865 35.2249 39.1715L35.485 39.433C32.3125 42.61 28.3971 44.3699 24.5861 44.3699Z" fill="black"/>
<path d="M27.5249 44.6513C27.4563 44.6513 27.3878 44.6513 27.3193 44.6497C22.5754 44.5934 18.1025 42.608 14.7275 39.0599L14.9939 38.8047C18.3003 42.2792 22.6797 44.2238 27.3255 44.2802C27.3925 44.2802 27.4594 44.2818 27.528 44.2818C31.8498 44.2818 35.8944 42.6111 38.9376 39.5625L39.1977 39.824C36.0813 42.943 31.9448 44.6513 27.5249 44.6513Z" fill="black"/>
<path d="M25.5333 42.5675C21.6335 42.5675 17.8054 41.4261 14.7466 39.0805L14.6968 39.043L14.6812 38.9835C13.3558 34.1452 17.7041 24.774 24.3761 18.0928L24.4898 17.9785L24.6175 18.0772C31.6602 23.4791 38.4614 31.7887 39.7806 36.6019L39.8086 36.7053L39.7323 36.782C35.9291 40.59 30.6681 42.5675 25.5333 42.5675ZM15.0192 38.8253C21.9388 44.0895 32.836 43.0889 39.3959 36.5972C38.0347 31.8639 31.4126 23.7923 24.5225 18.4702C18.0265 25.0308 13.7857 34.1123 15.0192 38.8253Z" fill="black"/>
<path d="M22.7429 42.264C22.0904 39.884 18.703 35.7567 15.1895 33.0619L15.4122 32.7676C18.9802 35.5046 22.4268 39.7196 23.098 42.1654L22.7429 42.264Z" fill="black"/>
<path d="M31.6206 41.4442C30.4992 37.3497 24.6807 30.2551 18.6504 25.6298L18.8731 25.3354C24.9579 30.003 30.8341 37.1837 31.9741 41.3456L31.6206 41.4442Z" fill="black"/>
<path d="M18.5829 39.7783C17.1797 39.7783 15.8933 39.5606 14.7891 39.1034L14.9292 38.7621C20.2649 40.9698 29.9568 37.403 36.5384 30.811L36.7985 31.0725C31.4721 36.4071 24.1133 39.7783 18.5829 39.7783Z" fill="black"/>
<path d="M14.951 39.0933L14.7656 38.7739C17.1641 37.3694 24.5011 30.8307 31.1216 24.2012L31.3817 24.4627C24.7425 31.1125 17.3727 37.6763 14.951 39.0933Z" fill="black"/>
<path d="M15.1796 39.4145L14.7451 39.081C11.4449 36.5491 9.48259 32.9588 9.22094 28.9739C8.93905 24.6758 10.6179 20.456 13.9508 17.0786C13.4571 15.1778 13.9757 14.351 14.5053 13.9909C16.0938 12.9121 19.8737 14.4387 24.6145 18.076L24.7827 18.2044L24.6332 18.3548C18.0468 24.953 13.7406 34.1629 15.0332 38.8853L15.1796 39.4145ZM15.8041 14.0426C15.1703 14.0426 14.8401 14.2117 14.7124 14.2978C13.9166 14.838 14.0676 16.111 14.3339 17.0849L14.362 17.1882L14.2857 17.265C10.9793 20.5782 9.30971 24.7275 9.58693 28.9488C9.82989 32.6597 11.5913 36.0199 14.5613 38.4641C13.6658 33.5381 17.8677 24.6805 24.2236 18.242C19.6214 14.7394 17.089 14.0426 15.8041 14.0426Z" fill="black"/>
<path d="M15.1881 33.0619C12.4844 30.9888 10.9239 30.66 10.4084 31.0092C10.0518 31.2519 10.1281 31.8531 10.2542 32.315L9.89913 32.4137C9.611 31.3646 9.90536 30.9043 10.2013 30.7023C11.0392 30.1339 12.9859 30.9058 15.4108 32.7675L15.1881 33.0619Z" fill="black"/>
<path d="M18.6498 25.6321C14.7968 22.6775 11.5293 21.2965 10.3207 22.1169C9.64638 22.5741 9.7772 23.6623 10.0046 24.4953L9.64949 24.594C9.17915 22.8748 9.6417 22.131 10.1152 21.81C11.4966 20.8721 14.7718 22.1905 18.8741 25.3377L18.6498 25.6321Z" fill="black"/>
<path d="M14.7062 39.0388C9.98722 32.1258 11.5898 21.0511 18.2774 14.3511L18.5375 14.6126C11.9683 21.192 10.3859 32.0554 15.0099 38.8289L14.7062 39.0388Z" fill="black"/>
<path d="M14.7268 39.0631C7.93954 31.9325 7.86945 20.6714 14.5679 13.9604L14.828 14.2219C8.26971 20.7904 8.34291 31.8197 14.9931 38.8063L14.7268 39.0631Z" fill="black"/>
<path d="M29.2709 35.8061L29.1432 35.7075C22.1006 30.3055 15.2993 21.9959 13.9802 17.1827L13.9521 17.0794L14.0285 17.0026C20.7191 10.3011 31.9279 9.26925 39.0126 14.7041L39.0624 14.7417L39.078 14.8012C40.4034 19.6394 36.055 29.0106 29.3846 35.6902L29.2709 35.8061ZM14.3633 17.189C15.7245 21.9223 22.3466 29.9939 29.2382 35.316C35.7327 28.7554 39.9735 19.6739 38.7385 14.9609C31.8189 9.69671 20.9232 10.6972 14.3633 17.189Z" fill="black"/>
<path d="M34.8852 28.4471C28.8004 23.7795 22.9242 16.5989 21.7842 12.437L22.1393 12.3384C23.2606 16.4329 29.0791 23.5275 35.1095 28.1512L34.8852 28.4471Z" fill="black"/>
<path d="M38.346 21.0179C34.778 18.281 31.3298 14.0643 30.6602 11.6201L31.0152 11.5215C31.6678 13.9015 35.0552 18.0289 38.5687 20.7236L38.346 21.0179Z" fill="black"/>
<path d="M17.223 22.9728L16.9629 22.7113C23.6395 16.0239 33.512 12.4226 38.9708 14.682L38.8306 15.0249C33.4965 12.8156 23.8031 16.3809 17.223 22.9728Z" fill="black"/>
<path d="M22.64 29.5844L22.3799 29.3229C29.0176 22.6746 36.3873 16.1109 38.8091 14.6938L38.9944 15.0133C36.5945 16.4178 29.259 22.9533 22.64 29.5844Z" fill="black"/>
<path d="M37.963 40.1328C36.0225 40.1328 32.8812 38.5764 29.1418 35.7095L28.9736 35.5811L29.1231 35.4308C35.7095 28.8341 40.0157 19.6242 38.7215 14.9018L38.5767 14.3726L39.0112 14.7061C42.3114 17.2379 44.2737 20.8283 44.5354 24.8132C44.8173 29.1113 43.1384 33.331 39.8055 36.7069C40.2992 38.6077 39.7806 39.4345 39.251 39.7946C38.9162 40.0216 38.4832 40.1328 37.963 40.1328ZM29.5343 35.5419C36.4103 40.7716 38.6623 39.746 39.047 39.4861C39.8429 38.9459 39.6918 37.673 39.4255 36.699L39.3974 36.5957L39.4737 36.519C42.7801 33.2073 44.4481 29.058 44.1709 24.8367C43.928 21.1258 42.1665 17.7656 39.1965 15.3214C40.092 20.2489 35.8901 29.105 29.5343 35.5419Z" fill="black"/>
<path d="M42.5212 32.2718C40.8376 32.2718 38.1199 30.9268 34.8867 28.4482L35.1094 28.1538C38.9625 31.1084 42.2315 32.4895 43.4385 31.669C44.1129 31.2118 43.982 30.1236 43.7547 29.2906L44.1098 29.1919C44.5801 30.9111 44.1175 31.6549 43.6456 31.9759C43.3529 32.1732 42.9744 32.2718 42.5212 32.2718Z" fill="black"/>
<path d="M42.8622 23.2664C41.853 23.2664 40.2458 22.4772 38.3457 21.0195L38.5684 20.7251C41.2721 22.7982 42.8326 23.127 43.3481 22.7778C43.7048 22.5351 43.6285 21.9339 43.5023 21.472L43.8574 21.3733C44.1455 22.4224 43.8512 22.8827 43.5553 23.0847C43.3731 23.2053 43.141 23.2664 42.8622 23.2664Z" fill="black"/>
<path d="M35.4798 39.4342L35.2197 39.1727C41.7889 32.5933 43.3713 21.7299 38.7473 14.9579L39.051 14.748C43.77 21.661 42.1689 32.7342 35.4798 39.4342Z" fill="black"/>
<path d="M39.1933 39.8241L38.9332 39.5626C45.49 32.9941 45.4168 21.9663 38.7666 14.9798L39.0329 14.7246C45.8201 21.8552 45.8918 33.1147 39.1933 39.8241Z" fill="black"/>
<path d="M39.5076 37.006L39.4235 36.7007C38.123 31.9532 31.3794 23.7313 24.3928 18.3716L24.2246 18.2432L24.3741 18.0929C28.8953 13.5647 33.5271 11.2364 36.4613 12.0192C37.7508 12.3637 38.6494 13.3048 39.0606 14.7437C42.3327 17.274 44.2764 20.8471 44.5365 24.8132C44.8199 29.1426 43.1146 33.3937 39.7318 36.7821L39.5076 37.006ZM24.7837 18.2056C31.6192 23.4964 38.19 31.4835 39.6898 36.2983C42.8514 33.0242 44.4399 28.9657 44.1689 24.8383C43.9135 20.9599 42.0041 17.4666 38.788 15.0005L38.7382 14.9629L38.7226 14.9034C38.3504 13.5459 37.5577 12.6957 36.3678 12.3794C33.5894 11.6356 29.1647 13.8669 24.7837 18.2056Z" fill="black"/>
<path d="M43.7544 29.2899C42.633 25.1954 36.8145 18.1008 30.7842 13.4755L31.0069 13.1812C37.0917 17.8487 42.9679 25.0294 44.1079 29.1913L43.7544 29.2899Z" fill="black"/>
<path d="M43.5017 21.4701C42.8492 19.0901 39.4602 14.9627 35.9482 12.268L36.171 11.9736C39.739 14.7106 43.1871 18.9257 43.8568 21.3715L43.5017 21.4701Z" fill="black"/>
<path d="M36.7962 31.0738L36.5361 30.8123C40.6695 26.6724 42.7409 22.199 42.0774 18.8466C41.7286 17.0804 40.6057 15.7589 38.8302 15.0245L38.9704 14.6816C40.8642 15.4661 42.0634 16.88 42.4387 18.7746C43.1271 22.2475 41.0168 26.8462 36.7962 31.0738Z" fill="black"/>
<path d="M31.3802 24.4627L31.1201 24.2012C37.0072 18.3045 39.2903 15.4125 39.4772 14.7784C39.3994 14.8003 39.253 14.8598 38.9929 15.0117L38.8075 14.6922C39.214 14.4542 39.6143 14.2679 39.7981 14.5075C39.9242 14.6734 40.136 14.949 37.7532 17.7126C36.2285 19.4804 34.0247 21.815 31.3802 24.4627Z" fill="black"/>
<path d="M24.5206 18.4679L24.3929 18.3692C21.4587 16.1176 19.3515 14.9918 17.8658 14.4626C16.5778 15.2423 15.3723 16.1771 14.2868 17.2638L14.0626 17.4877L13.9785 17.1823C13.438 15.2079 13.966 14.3561 14.5049 13.9913C15.2135 13.5106 16.3566 13.5466 17.8253 14.057C22.6735 11.1854 28.64 10.4526 33.7919 12.0372C34.7793 11.8227 35.6795 11.8102 36.4598 12.0184C37.768 12.3676 38.6729 13.3305 39.0763 14.8024L39.2211 15.3316L38.7866 14.9981C37.2759 13.8394 35.5721 12.9798 33.7655 12.4145C31.1412 13.0158 27.8691 15.1124 24.6328 18.3536L24.5206 18.4679ZM18.2738 14.223C19.9979 14.9026 22.1206 16.174 24.4879 17.9778C27.4906 14.995 30.5369 12.9861 33.0942 12.2188C28.2724 10.9161 22.8012 11.6332 18.2738 14.223ZM15.8037 14.0414C15.1699 14.0414 14.8397 14.2105 14.712 14.2966C13.9987 14.7804 14.047 15.8561 14.2572 16.7752C15.2259 15.8373 16.285 15.0169 17.4079 14.3123C16.7335 14.1103 16.2071 14.0414 15.8037 14.0414ZM34.527 12.2799C35.9505 12.7872 37.3024 13.4777 38.5405 14.3561C38.12 13.3133 37.3911 12.6478 36.3679 12.3754C35.815 12.2282 35.1967 12.1985 34.527 12.2799Z" fill="black"/>
<path d="M30.7836 13.4768C26.9306 10.5222 23.66 9.14118 22.4546 9.96165C21.7802 10.4189 21.911 11.5071 22.1384 12.3401L21.7833 12.4387C21.313 10.7195 21.7755 9.97574 22.2474 9.65476C23.6289 8.71685 26.9041 10.0352 31.0064 13.1825L30.7836 13.4768Z" fill="black"/>
<path d="M35.9489 12.2663C33.2452 10.1932 31.6831 9.86435 31.1691 10.2151C30.8125 10.4578 30.8888 11.059 31.015 11.5209L30.6599 11.6196C30.3717 10.5705 30.6661 10.1102 30.962 9.9082C31.7983 9.34138 33.7451 10.1117 36.1716 11.9735L35.9489 12.2663Z" fill="black"/>
<path d="M38.749 14.9565C36.715 11.9768 33.7061 10.1589 30.2767 9.83796C26.2227 9.45904 21.946 11.1986 18.5384 14.6136L18.2783 14.3521C21.7654 10.8604 26.1511 9.08168 30.3109 9.47C33.851 9.80194 36.9549 11.6762 39.0527 14.7482L38.749 14.9565Z" fill="black"/>
<path d="M38.7687 14.9804C35.4607 11.5059 31.0828 9.56125 26.4371 9.50488C22.0311 9.45477 17.9164 11.127 14.8265 14.2226L14.5664 13.9611C17.6781 10.8436 21.8146 9.13379 26.2346 9.13379C26.3031 9.13379 26.3716 9.13379 26.4402 9.13535C31.1841 9.19172 35.657 11.1771 39.0335 14.7252L38.7687 14.9804Z" fill="black"/>
<path d="M26.8238 44.8431C26.5045 44.8431 26.1681 44.829 25.9143 44.8102C25.4876 44.7804 24.8911 44.7178 24.0921 44.6176C23.6218 44.5581 23.0362 44.4281 22.678 44.3358C22.0893 44.1823 21.3012 43.9427 20.7156 43.7376C20.2095 43.5607 19.1068 43.0988 18.1506 42.5476C17.7083 42.294 16.534 41.6176 15.3301 40.581C14.7243 40.0596 13.8054 39.2204 12.8211 37.9568C12.4956 37.5403 12.2449 37.1755 12.2433 37.1723C11.991 36.8044 11.991 36.8044 11.6063 36.189C11.3089 35.713 10.9958 35.0883 10.8619 34.8221C10.6625 34.4228 10.4523 33.9499 10.3246 33.6117C10.2296 33.3612 10.1314 33.0809 10.0364 32.8022C9.89939 32.4327 9.77791 32.0554 9.67356 31.6733C9.53184 31.119 9.34651 30.3878 9.27019 29.8288C9.19855 29.309 9.11912 28.7155 9.08175 28.2583C9.06617 28.0767 9.01789 27.4441 9.03035 26.9493L9.03191 26.8711C9.04281 26.4154 9.05683 25.8486 9.08953 25.4118C9.11912 25.0297 9.18142 24.5036 9.24839 24.073C9.50225 22.4634 9.91185 21.3 9.92898 21.2515C10.0505 20.9117 10.2747 20.2776 10.4632 19.8297C10.6002 19.5041 10.8229 19.0312 11.0597 18.5662C11.4101 17.8757 11.9489 17.0035 12.399 16.3929C12.9753 15.6131 13.7119 14.7441 14.2773 14.182C15.1339 13.3302 15.4687 13.075 16.5838 12.2295C16.9716 11.9351 17.5198 11.6031 17.8967 11.3808C18.2409 11.1772 18.7268 10.9173 19.1333 10.72C19.5258 10.529 20.0849 10.2879 20.5568 10.1063C20.8247 10.0029 21.1486 9.89801 21.4632 9.7978C21.6002 9.75395 21.7326 9.71168 21.851 9.67097C22.2917 9.52379 22.8742 9.39852 23.385 9.29362C23.6623 9.23725 23.9956 9.18714 24.3179 9.14017C24.455 9.11981 24.5858 9.10102 24.7057 9.08224C25.1963 9.00395 25.8442 8.9742 26.355 8.95854C26.7927 8.94288 27.3051 8.94758 27.6586 8.96793C28.1694 8.99768 28.8812 9.06501 29.4683 9.14017C30.3015 9.24664 31.046 9.44393 31.8325 9.65375C32.4196 9.81032 33.1983 10.0859 33.7699 10.338C34.2994 10.5729 34.695 10.7561 34.9769 10.9017C35.3335 11.0849 35.8101 11.3526 36.1621 11.5687C36.5281 11.7926 36.947 12.0682 37.2289 12.2717C37.6494 12.5771 37.7911 12.6788 38.4219 13.2034C38.4904 13.2613 38.8502 13.5666 39.3221 14.0254C39.6818 14.3761 39.9824 14.7065 40.1273 14.8647C40.3017 15.0573 40.691 15.5113 40.9356 15.8307C41.3311 16.3443 41.4012 16.4508 41.7953 17.0333C42.0912 17.4732 42.6145 18.3751 42.8979 18.9748C43.1159 19.4352 43.4804 20.2071 43.7778 21.1215C44.1018 22.1142 44.3245 22.9879 44.4413 23.7176C44.5597 24.4566 44.6936 25.2912 44.7185 26.489C44.7466 27.8027 44.6297 28.8392 44.5581 29.3403C44.4849 29.8523 44.3494 30.8074 43.946 32.1493C43.7031 32.9588 43.2639 33.9985 42.9384 34.7281C42.7889 35.0632 42.549 35.5095 42.2049 36.0919C42.0553 36.3472 41.8575 36.6415 41.6675 36.9249C41.585 37.0502 41.504 37.1692 41.4324 37.2804C41.1645 37.6922 40.7565 38.1948 40.4637 38.5283L40.4107 38.5893C40.0587 38.9902 39.6227 39.4881 39.2411 39.8326C39.1554 39.9109 39.062 39.9954 38.9654 40.0847C38.7038 40.3242 38.4079 40.5951 38.1587 40.7987C37.8145 41.0805 37.3068 41.4845 36.8925 41.7491L36.6075 41.9323C36.3116 42.1233 35.9752 42.3394 35.698 42.4975C35.2697 42.7402 34.709 43.0283 34.3041 43.2147C32.8728 43.8723 31.6378 44.1917 31.5023 44.2262C30.6597 44.4375 29.5571 44.627 28.8671 44.7241C28.4918 44.7773 28.0215 44.7961 27.6056 44.8133C27.4686 44.8196 27.3378 44.8243 27.2163 44.8305C27.0964 44.8399 26.9609 44.8431 26.8238 44.8431ZM12.7417 37.235C12.8398 37.3696 12.9675 37.5434 13.1108 37.7266C14.0764 38.9651 14.9766 39.7872 15.5699 40.2992C16.7473 41.3138 17.8998 41.9761 18.3328 42.2251C19.2688 42.7637 20.3419 43.2147 20.8371 43.3869C21.4134 43.5873 22.1905 43.8238 22.7714 43.9756C23.2293 44.0946 23.7651 44.2027 24.1388 44.2496C24.93 44.3499 25.5203 44.4125 25.9408 44.4407C26.2927 44.4657 26.8082 44.4845 27.2007 44.4642C27.3238 44.4579 27.4561 44.4516 27.5932 44.4469C27.9997 44.4297 28.4622 44.4109 28.8189 44.3608C29.4995 44.2653 30.5881 44.079 31.4166 43.8707C31.549 43.8378 32.7545 43.5263 34.1561 42.8811C34.5533 42.698 35.103 42.4161 35.522 42.1781C35.7914 42.0262 36.1216 41.8117 36.4144 41.6238L36.7009 41.4391C37.0996 41.1854 37.5949 40.7893 37.9329 40.5153C38.1743 40.3195 38.4655 40.0518 38.724 39.8154C38.8221 39.7261 38.9156 39.64 39.0028 39.5617C39.3688 39.2313 39.7986 38.7428 40.1428 38.3482L40.1958 38.2872C40.4792 37.963 40.8748 37.4761 41.1318 37.0799C41.2034 36.9688 41.286 36.8466 41.3701 36.7214C41.557 36.4411 41.7501 36.1514 41.8949 35.9056C42.2313 35.3357 42.4649 34.9019 42.6082 34.5794C42.9291 33.8591 43.3605 32.8351 43.5987 32.0444C43.9943 30.7291 44.1283 29.7928 44.1999 29.2902C44.27 28.8001 44.3837 27.7855 44.3556 26.4984C44.3307 25.3272 44.1999 24.5052 44.0831 23.7802C43.9694 23.0678 43.7498 22.2144 43.4321 21.2389C43.1409 20.348 42.7827 19.5886 42.5693 19.1361C42.2921 18.5505 41.7828 17.6721 41.4978 17.2493C41.1053 16.6684 41.0368 16.5651 40.6474 16.0593C40.4076 15.7478 40.0291 15.3046 39.8594 15.1168C39.7177 14.9602 39.4218 14.6361 39.0698 14.2916C38.6072 13.8406 38.2568 13.5447 38.1914 13.4899C37.57 12.9732 37.4298 12.8714 37.0171 12.5724C36.743 12.3735 36.3334 12.1042 35.9752 11.885C35.631 11.6736 35.1638 11.4121 34.8134 11.2321C34.5377 11.0896 34.1499 10.9095 33.6266 10.6778C33.0706 10.4319 32.3137 10.1642 31.7421 10.0123C30.9681 9.80563 30.2361 9.61147 29.4263 9.50813C28.8453 9.43454 28.1461 9.36721 27.6415 9.33746C27.2973 9.3171 26.7989 9.31397 26.3722 9.32806C25.8722 9.34529 25.2384 9.37347 24.768 9.44863C24.6481 9.46742 24.5142 9.48777 24.3771 9.50813C24.0594 9.5551 23.7308 9.60364 23.4645 9.65844C23.1032 9.7336 22.4304 9.87139 21.9725 10.0248C21.851 10.0655 21.7186 10.1078 21.58 10.1532C21.2701 10.2534 20.9492 10.3552 20.6923 10.4554C20.2297 10.6339 19.6815 10.8704 19.2968 11.0567C18.9044 11.2477 18.4169 11.5061 18.0867 11.7018C17.7161 11.921 17.1819 12.2451 16.8096 12.527C15.7101 13.3615 15.3784 13.6136 14.5405 14.4466C13.9876 14.9978 13.2634 15.848 12.6981 16.6152C12.2589 17.2102 11.734 18.0635 11.3914 18.7368C11.1578 19.1956 10.9397 19.6591 10.8058 19.9769C10.622 20.4153 10.3993 21.0417 10.2794 21.3783C10.2623 21.4253 9.86513 22.5573 9.61594 24.1325C9.55053 24.5474 9.48823 25.0735 9.4602 25.4415C9.42749 25.869 9.41503 26.4311 9.40413 26.882L9.40257 26.9603C9.39479 27.2813 9.41348 27.7557 9.45241 28.2286C9.4929 28.7124 9.58479 29.381 9.6393 29.7787C9.7125 30.3173 9.89472 31.036 10.0287 31.5621C10.0302 31.57 10.0318 31.5762 10.0349 31.5841C10.1237 31.8737 10.2467 32.2605 10.3775 32.6504C11.2512 35.0162 12.7946 37.0956 14.8893 38.7256C14.9174 38.7475 14.9439 38.7678 14.9719 38.7898L14.7492 39.0841C14.0125 38.5173 13.3428 37.9004 12.7417 37.235Z" fill="black"/>
</svg>
