<svg viewBox="0 0 50 50" fill="none" xmlns="http://www.w3.org/2000/svg">
<path d="M49.5 25C49.5 38.531 38.531 49.5 25 49.5C11.469 49.5 0.5 38.531 0.5 25C0.5 11.469 11.469 0.5 25 0.5C38.531 0.5 49.5 11.469 49.5 25Z" />
<path d="M22.9489 27.1917L22.7945 27.3268L22.7796 27.5315L22.5149 31.1611L22.4758 31.6975H23.0136C23.2802 31.6975 23.5017 31.6397 23.6965 31.5302C23.867 31.4344 23.9979 31.3074 24.0881 31.2199C24.0912 31.2169 24.0943 31.2139 24.0973 31.2109L25.5703 29.8385L28.9165 32.2277L28.9415 32.2455L28.9684 32.2601C29.3641 32.4752 29.8272 32.5962 30.2598 32.4051C30.6946 32.2131 30.9194 31.7856 31.026 31.3294L31.026 31.3295L31.0275 31.3226L33.4102 20.4372L33.4107 20.4368L33.4428 20.2907C33.5696 19.7147 33.4934 19.1631 33.1144 18.8075C32.7341 18.4507 32.2072 18.439 31.7659 18.5992L31.7659 18.5991L31.7616 18.6007L17.568 23.8989L17.5679 23.8989L17.5658 23.8997C17.2913 24.0036 17.0537 24.1304 16.8727 24.285C16.6953 24.4366 16.5288 24.654 16.5032 24.9361C16.4761 25.236 16.6188 25.4793 16.7978 25.6426C16.9697 25.7992 17.1953 25.9056 17.4333 25.9775C17.4334 25.9775 17.4334 25.9775 17.4335 25.9776L21.0618 27.0779L21.2761 27.1428L21.4673 27.0262L26.9783 23.6641L22.9489 27.1917Z"/>
</svg>
