<svg viewBox="0 0 50 50" fill="none" xmlns="http://www.w3.org/2000/svg">
<circle cx="25" cy="25" r="24.5"/>
<path fill-rule="evenodd" clip-rule="evenodd" d="M17.4105 29.985L16.4223 33.5927L20.1223 32.6213L20.4712 32.8119C21.6974 33.4818 23.0804 33.8346 24.4915 33.8346H24.4958C29.1429 33.8346 33 30.0457 33 25.4194C33 23.1937 32.0543 21.079 30.4463 19.4672C28.8573 17.8744 26.7456 17 24.4958 17C19.857 17 16.0806 20.7764 16.0806 25.4152C16.0806 26.899 16.4675 28.347 17.2026 29.6239L17.4105 29.985ZM15 35L16.3359 30.1228C15.5132 28.6935 15.0806 27.0734 15.0806 25.4152C15.0806 20.2241 19.3047 16 24.4958 16C27.0107 16 29.3772 16.9797 31.1542 18.7609C32.9312 20.5422 34 22.9045 34 25.4194C34 30.6105 29.6826 34.8346 24.4958 34.8346H24.4915C22.9138 34.8346 21.3659 34.4402 19.9917 33.6895L15 35Z" />
<path fill-rule="evenodd" clip-rule="evenodd" d="M25.5369 27.1991C25.6394 27.0721 25.9685 26.6575 26.0834 26.4702C26.1983 26.283 26.3132 26.3131 26.4716 26.3766C26.63 26.4368 27.4777 26.8848 27.6485 26.9784C27.6765 26.9932 27.703 27.0068 27.7278 27.0197C27.8549 27.085 27.9408 27.1292 27.9746 27.1991C28.0181 27.276 28.0181 27.6471 27.8752 28.0818C27.7324 28.5165 27.0461 28.911 26.7138 28.9645C26.1673 29.0514 25.7387 29.0079 24.6457 28.4997C23.035 27.7494 21.9467 26.0742 21.7344 25.7473C21.7187 25.7232 21.7078 25.7064 21.7018 25.6979C21.6996 25.6947 21.6971 25.691 21.6942 25.6867C21.5863 25.5283 21 24.6678 21 23.7787C21 22.926 21.3876 22.4789 21.5677 22.2711C21.5804 22.2565 21.592 22.243 21.6024 22.2307C21.7608 22.0468 21.9471 22 22.062 22C22.1769 22 22.2918 22 22.3912 22.0067C22.404 22.0075 22.4174 22.0075 22.4312 22.0075C22.5314 22.0073 22.6566 22.007 22.7794 22.3243C22.8215 22.434 22.8814 22.5908 22.9458 22.7599C23.0996 23.1632 23.2797 23.6359 23.3104 23.7018C23.3538 23.7955 23.3818 23.9024 23.3259 24.0262C23.1795 24.3414 23.0282 24.5118 22.9209 24.6327C22.7869 24.7836 22.7214 24.8573 22.8197 25.0392C23.4874 26.273 24.1519 26.7009 25.1643 27.2459C25.335 27.3395 25.4375 27.3228 25.5369 27.1991ZM23.9367 24.9635C24.1352 25.2659 24.3259 25.4773 24.5215 25.6485C24.6983 25.8034 24.8936 25.9387 25.136 26.0835C25.1829 26.0195 25.2159 25.972 25.2311 25.9472C25.3798 25.7049 25.664 25.3969 26.1359 25.3373C26.4733 25.2947 26.762 25.4146 26.8335 25.4442C26.8371 25.4457 26.8401 25.447 26.8425 25.448C26.9964 25.5092 27.3015 25.6661 27.5157 25.7773C27.7654 25.9067 28.0211 26.0425 28.1218 26.0975C28.1428 26.1086 28.1593 26.117 28.1783 26.1268C28.1921 26.1339 28.2073 26.1417 28.2266 26.1517C28.2647 26.1715 28.3213 26.2012 28.3791 26.2363C28.4741 26.2939 28.7156 26.447 28.8667 26.7473C28.9746 26.9596 28.9899 27.1689 28.9945 27.2308L28.9948 27.2345C29.0033 27.3492 29.0009 27.469 28.9916 27.5853C28.973 27.8199 28.9219 28.0997 28.8252 28.394C28.6502 28.9266 28.2204 29.2908 27.9342 29.4887C27.6335 29.6965 27.2385 29.8929 26.8728 29.9518L26.8709 29.9521C26.5122 30.0091 26.1435 30.0285 25.6852 29.9352C25.2589 29.8484 24.7953 29.6721 24.2241 29.4065C23.18 28.9201 22.3569 28.135 21.8036 27.4998C21.5218 27.1763 21.2977 26.8774 21.138 26.6509C21.0579 26.5373 20.9938 26.4417 20.947 26.3705C20.9262 26.3388 20.9086 26.3118 20.8958 26.2921L20.8917 26.2858C20.8836 26.2734 20.8796 26.2672 20.8782 26.2651L20.874 26.2589C20.8717 26.2556 20.869 26.2516 20.8659 26.247C20.8075 26.1613 20.6052 25.8646 20.4148 25.4603C20.2202 25.0472 20 24.4443 20 23.7787C20 22.5523 20.5944 21.8671 20.8046 21.6248C20.8176 21.6098 20.8291 21.5965 20.8389 21.5849L20.8447 21.5781C21.2155 21.1475 21.6923 21 22.062 21C22.0666 21 22.0712 21 22.0759 21C22.1745 21 22.3078 21 22.4344 21.0074C22.4503 21.0074 22.4917 21.0074 22.5384 21.0103C22.6531 21.0174 22.8297 21.0425 23.0223 21.1395C23.4136 21.3366 23.606 21.6896 23.712 21.9634L23.7126 21.9651C23.7552 22.0758 23.8162 22.2359 23.8813 22.4067C23.9259 22.5235 23.9724 22.6454 24.0162 22.76C24.0708 22.9028 24.1216 23.0351 24.1611 23.1368C24.1857 23.2 24.2016 23.24 24.2103 23.2619C24.2184 23.2822 24.2203 23.2871 24.2173 23.2807C24.3185 23.4984 24.4643 23.9352 24.2372 24.4379L24.2329 24.4474C24.1367 24.6545 24.0355 24.823 23.9367 24.9635Z" />
</svg>
